<svg width="138" height="24" viewBox="0 0 138 24" fill="none" xmlns="http://www.w3.org/2000/svg">
<path d="M14.9923 13.7083L14.9923 23.9575L12.3306 21.2958C12.2428 21.208 12.1766 21.1009 12.1373 20.9831L11.3413 18.595C11.2922 18.4478 11.2969 18.2879 11.3546 18.1438V18.1438C11.9075 16.7615 12.7959 15.5385 13.9397 14.5854L14.9923 13.7083Z" fill="url(#paint0_linear_25123_73472)"/>
<path d="M14.9923 13.7083L14.9923 23.9575L17.654 21.2958C17.7419 21.208 17.808 21.1009 17.8473 20.9831L18.6433 18.595C18.6924 18.4478 18.6877 18.2879 18.6301 18.1438V18.1438C18.0771 16.7615 17.1887 15.5385 16.0449 14.5854L14.9923 13.7083Z" fill="url(#paint1_linear_25123_73472)"/>
<path d="M10.2245 11.3743L2.97718 18.6216L2.97717 14.8573C2.97717 14.7331 3.00608 14.6106 3.06163 14.4996L4.18736 12.2481C4.25677 12.1093 4.37313 11.9995 4.51578 11.9384V11.9384C5.88425 11.3519 7.37722 11.1154 8.85995 11.2502L10.2245 11.3743Z" fill="url(#paint2_linear_25123_73472)"/>
<path d="M10.2245 11.3743L2.97718 18.6216L6.74142 18.6216C6.86561 18.6216 6.98811 18.5927 7.09919 18.5371L9.35067 17.4114C9.48949 17.342 9.59921 17.2256 9.66035 17.083V17.083C10.2468 15.7145 10.4833 14.2215 10.3485 12.7388L10.2245 11.3743Z" fill="url(#paint3_linear_25123_73472)"/>
<path d="M19.7755 11.3743L27.0228 18.6216L27.0228 14.8573C27.0228 14.7331 26.9939 14.6106 26.9384 14.4996L25.8126 12.2481C25.7432 12.1093 25.6269 11.9995 25.4842 11.9384V11.9384C24.1157 11.3519 22.6228 11.1154 21.14 11.2502L19.7755 11.3743Z" fill="url(#paint4_linear_25123_73472)"/>
<path d="M19.7755 11.3743L27.0228 18.6216L23.2586 18.6216C23.1344 18.6216 23.0119 18.5927 22.9008 18.5371L20.6493 17.4114C20.5105 17.342 20.4008 17.2256 20.3397 17.083V17.083C19.7532 15.7145 19.5167 14.2215 19.6515 12.7388L19.7755 11.3743Z" fill="url(#paint5_linear_25123_73472)"/>
<circle cx="14.9924" cy="8.73887" r="6.83288" fill="url(#paint6_linear_25123_73472)" stroke="url(#paint7_linear_25123_73472)" stroke-width="3.72703"/>
<circle cx="14.9924" cy="8.73883" r="2.48468" fill="#E0EBFF"/>
<path d="M36.1357 17.7121L33 17.7291V6.2878H37.3901C40.7801 6.2878 42.7632 7.89805 42.7632 10.5592C42.7632 13.3051 40.8817 14.9323 37.5595 14.9323H36.1357V17.7121ZM37.4748 9.1693H36.1357V12.0508H37.4748C38.8816 12.0508 39.5427 11.5254 39.5427 10.5592C39.5427 9.66085 38.8308 9.1693 37.4748 9.1693Z" fill="white"/>
<path d="M47.673 17.7291H44.5373V6.2878H47.673V10.5931H52.1648V6.2878H55.3005V17.7291H52.1648V13.4746H47.673V17.7291Z" fill="white"/>
<path d="M63.1979 17.9833C59.7401 17.9833 57.1637 15.4239 57.1637 12.0169C57.1637 8.60995 59.7401 6.0505 63.1979 6.0505C66.6557 6.0505 69.2321 8.60995 69.2321 12.0169C69.2321 15.4239 66.6557 17.9833 63.1979 17.9833ZM63.1979 15.0171C64.7912 15.0171 66.0116 13.7119 66.0116 12.0169C66.0116 10.3219 64.7912 9.01675 63.1979 9.01675C61.6046 9.01675 60.3842 10.3219 60.3842 12.0169C60.3842 13.7119 61.6046 15.0171 63.1979 15.0171Z" fill="white"/>
<path d="M79.6133 6.2878V9.1693H76.3758V17.7291H73.2401V9.1693H70.0026V6.2878H79.6133Z" fill="white"/>
<path d="M86.4048 17.9833C82.947 17.9833 80.3706 15.4239 80.3706 12.0169C80.3706 8.60995 82.947 6.0505 86.4048 6.0505C89.8626 6.0505 92.439 8.60995 92.439 12.0169C92.439 15.4239 89.8626 17.9833 86.4048 17.9833ZM86.4048 15.0171C87.9981 15.0171 89.2185 13.7119 89.2185 12.0169C89.2185 10.3219 87.9981 9.01675 86.4048 9.01675C84.8115 9.01675 83.5911 10.3219 83.5911 12.0169C83.5911 13.7119 84.8115 15.0171 86.4048 15.0171Z" fill="white"/>
<path d="M97.1928 17.7291H94.2266V7.96585C94.2266 6.74545 95.1758 6.0166 96.1758 6.0166C96.9725 6.0166 97.6674 6.2878 98.0742 6.9319L102.108 13.3221V6.2878H105.075V16.051C105.075 17.2714 104.125 17.9833 103.125 17.9833C102.346 17.9833 101.634 17.7121 101.227 17.068L97.1928 10.6779V17.7291Z" fill="white"/>
<path d="M137.79 12.1416H135.961V17.9241H134.594V12.1416H132.765V10.9221H137.79V12.1416Z" fill="url(#paint8_linear_25123_73472)"/>
<path d="M131.999 15.8591C131.999 16.5213 131.757 17.0425 131.271 17.4227C130.786 17.7964 130.163 17.9833 129.403 17.9833C128.852 17.9833 128.37 17.9144 127.957 17.7768C127.551 17.6325 127.18 17.3932 126.846 17.0589L127.731 16.1738C127.941 16.3836 128.187 16.5344 128.469 16.6262C128.757 16.7179 129.075 16.7638 129.423 16.7638C130.249 16.7638 130.662 16.4754 130.662 15.8984C130.662 15.6558 130.599 15.469 130.475 15.3379C130.35 15.2002 130.134 15.1084 129.826 15.0625L129.432 15.0035L128.98 14.9445C128.383 14.8593 127.931 14.6659 127.623 14.3643C127.288 14.0299 127.121 13.571 127.121 12.9875C127.121 12.3515 127.341 11.8402 127.78 11.4533C128.219 11.06 128.813 10.8633 129.56 10.8633C130.052 10.8633 130.478 10.9288 130.839 11.06C131.199 11.1845 131.527 11.3911 131.822 11.6795L130.957 12.5351C130.76 12.345 130.54 12.2171 130.298 12.1516C130.062 12.086 129.803 12.0532 129.521 12.0532C129.173 12.0532 128.905 12.1385 128.714 12.3089C128.531 12.4728 128.439 12.6826 128.439 12.9383C128.439 13.1219 128.511 13.2891 128.655 13.4399C128.8 13.5841 129.013 13.6759 129.295 13.7152L129.718 13.7742L130.121 13.8332C130.435 13.8791 130.698 13.9447 130.907 14.0299C131.124 14.1151 131.307 14.2299 131.458 14.3741C131.819 14.715 131.999 15.21 131.999 15.8591Z" fill="url(#paint9_linear_25123_73472)"/>
<path d="M126.613 17.9241H125.187L124.774 16.685H122.286L121.863 17.9241H120.437L122.984 10.9221H124.056L126.613 17.9241ZM124.41 15.5344L123.555 12.9873L122.67 15.5344H124.41Z" fill="url(#paint10_linear_25123_73472)"/>
<path d="M120.091 17.9241H115.547V10.9221H116.914V16.7047H120.091V17.9241Z" fill="url(#paint11_linear_25123_73472)"/>
<path d="M114.149 15.9081C114.149 16.544 113.952 17.039 113.559 17.3931C113.166 17.7471 112.648 17.9241 112.005 17.9241H109.075V10.9221H111.887C112.569 10.9221 113.1 11.0991 113.48 11.4532C113.861 11.8072 114.051 12.2858 114.051 12.889C114.051 13.243 113.959 13.5479 113.775 13.8036C113.598 14.0527 113.402 14.2297 113.185 14.3346C113.448 14.4592 113.674 14.6493 113.864 14.905C114.054 15.1541 114.149 15.4885 114.149 15.9081ZM112.684 12.948C112.684 12.7054 112.605 12.512 112.448 12.3678C112.29 12.217 112.067 12.1416 111.779 12.1416H110.442V13.7544H111.779C112.067 13.7544 112.29 13.6823 112.448 13.538C112.605 13.3872 112.684 13.1906 112.684 12.948ZM112.782 15.8392C112.782 15.5901 112.703 15.3869 112.546 15.2295C112.389 15.0656 112.163 14.9837 111.868 14.9837H110.442V16.7047H111.868C112.163 16.7047 112.389 16.6227 112.546 16.4588C112.703 16.2949 112.782 16.0884 112.782 15.8392Z" fill="url(#paint12_linear_25123_73472)"/>
<defs>
<linearGradient id="paint0_linear_25123_73472" x1="14.9923" y1="13.7083" x2="14.9923" y2="23.647" gradientUnits="userSpaceOnUse">
<stop stop-color="#8100E7"/>
<stop offset="0.536458" stop-color="#3EFFF3"/>
<stop offset="1" stop-color="#00BBF5"/>
</linearGradient>
<linearGradient id="paint1_linear_25123_73472" x1="14.9923" y1="13.7083" x2="14.9923" y2="23.647" gradientUnits="userSpaceOnUse">
<stop stop-color="#1D0AFF"/>
<stop offset="0.510417" stop-color="#00C2FF"/>
</linearGradient>
<linearGradient id="paint2_linear_25123_73472" x1="10.2245" y1="11.3743" x2="3.19674" y2="18.402" gradientUnits="userSpaceOnUse">
<stop stop-color="#8100E7"/>
<stop offset="0.536458" stop-color="#3EFFF3"/>
<stop offset="1" stop-color="#00BBF5"/>
</linearGradient>
<linearGradient id="paint3_linear_25123_73472" x1="10.2245" y1="11.3743" x2="3.19674" y2="18.402" gradientUnits="userSpaceOnUse">
<stop stop-color="#1D0AFF"/>
<stop offset="0.510417" stop-color="#00C2FF"/>
</linearGradient>
<linearGradient id="paint4_linear_25123_73472" x1="19.7755" y1="11.3743" x2="26.8033" y2="18.402" gradientUnits="userSpaceOnUse">
<stop stop-color="#1D0AFF"/>
<stop offset="0.510417" stop-color="#00C2FF"/>
</linearGradient>
<linearGradient id="paint5_linear_25123_73472" x1="19.7755" y1="11.3743" x2="26.8033" y2="18.402" gradientUnits="userSpaceOnUse">
<stop stop-color="#8100E7"/>
<stop offset="0.536458" stop-color="#3EFFF3"/>
<stop offset="1" stop-color="#00BBF5"/>
</linearGradient>
<linearGradient id="paint6_linear_25123_73472" x1="14.9924" y1="0.0424805" x2="14.9924" y2="17.4353" gradientUnits="userSpaceOnUse">
<stop stop-color="#232323"/>
<stop offset="0.489583" stop-color="#202947"/>
<stop offset="1" stop-color="#232323"/>
</linearGradient>
<linearGradient id="paint7_linear_25123_73472" x1="14.9924" y1="0.0424805" x2="14.9924" y2="17.4353" gradientUnits="userSpaceOnUse">
<stop stop-color="#57FFD7"/>
<stop offset="0.510417" stop-color="#E95FFF"/>
<stop offset="1" stop-color="#01FFFF"/>
</linearGradient>
<linearGradient id="paint8_linear_25123_73472" x1="108.219" y1="12.7386" x2="138.11" y2="16.9581" gradientUnits="userSpaceOnUse">
<stop stop-color="#F694FF"/>
<stop offset="0.364583" stop-color="#4FFFF4"/>
<stop offset="0.744792" stop-color="#FFE7AA"/>
<stop offset="1" stop-color="#FF79EA"/>
</linearGradient>
<linearGradient id="paint9_linear_25123_73472" x1="108.219" y1="12.7386" x2="138.11" y2="16.9581" gradientUnits="userSpaceOnUse">
<stop stop-color="#F694FF"/>
<stop offset="0.364583" stop-color="#4FFFF4"/>
<stop offset="0.744792" stop-color="#FFE7AA"/>
<stop offset="1" stop-color="#FF79EA"/>
</linearGradient>
<linearGradient id="paint10_linear_25123_73472" x1="108.219" y1="12.7386" x2="138.11" y2="16.9581" gradientUnits="userSpaceOnUse">
<stop stop-color="#F694FF"/>
<stop offset="0.364583" stop-color="#4FFFF4"/>
<stop offset="0.744792" stop-color="#FFE7AA"/>
<stop offset="1" stop-color="#FF79EA"/>
</linearGradient>
<linearGradient id="paint11_linear_25123_73472" x1="108.219" y1="12.7386" x2="138.11" y2="16.9581" gradientUnits="userSpaceOnUse">
<stop stop-color="#F694FF"/>
<stop offset="0.364583" stop-color="#4FFFF4"/>
<stop offset="0.744792" stop-color="#FFE7AA"/>
<stop offset="1" stop-color="#FF79EA"/>
</linearGradient>
<linearGradient id="paint12_linear_25123_73472" x1="108.219" y1="12.7386" x2="138.11" y2="16.9581" gradientUnits="userSpaceOnUse">
<stop stop-color="#F694FF"/>
<stop offset="0.364583" stop-color="#4FFFF4"/>
<stop offset="0.744792" stop-color="#FFE7AA"/>
<stop offset="1" stop-color="#FF79EA"/>
</linearGradient>
</defs>
</svg>
