<svg width="127" height="24" viewBox="0 0 127 24" fill="none" xmlns="http://www.w3.org/2000/svg">
<path d="M15.022 13.7083L15.022 23.9575L12.3603 21.2958C12.2725 21.208 12.2063 21.1009 12.167 20.9831L11.371 18.595C11.3219 18.4478 11.3266 18.2879 11.3843 18.1438C11.9372 16.7615 12.8257 15.5385 13.9694 14.5854L15.022 13.7083Z" fill="url(#paint0_linear_25555_221980)"/>
<path d="M15.022 13.7083L15.022 23.9575L17.6838 21.2958C17.7716 21.208 17.8377 21.1009 17.877 20.9831L18.673 18.595C18.7221 18.4478 18.7174 18.2879 18.6598 18.1438C18.1068 16.7615 17.2184 15.5385 16.0746 14.5854L15.022 13.7083Z" fill="url(#paint1_linear_25555_221980)"/>
<path d="M10.2542 11.3743L3.00685 18.6216L3.00683 14.8574C3.00683 14.7332 3.03575 14.6107 3.09129 14.4996L4.21702 12.2481C4.28643 12.1093 4.40279 11.9996 4.54545 11.9385C5.91392 11.352 7.40688 11.1155 8.88961 11.2503L10.2542 11.3743Z" fill="url(#paint2_linear_25555_221980)"/>
<path d="M10.2542 11.3743L3.00685 18.6216L6.77108 18.6216C6.89528 18.6216 7.01777 18.5927 7.12885 18.5372L9.38034 17.4115C9.51915 17.342 9.62887 17.2257 9.69001 17.083C10.2765 15.7146 10.513 14.2216 10.3782 12.7389L10.2542 11.3743Z" fill="url(#paint3_linear_25555_221980)"/>
<path d="M19.8052 11.3743L27.0525 18.6216L27.0525 14.8574C27.0525 14.7332 27.0236 14.6107 26.968 14.4996L25.8423 12.2481C25.7729 12.1093 25.6565 11.9996 25.5139 11.9385C24.1454 11.352 22.6524 11.1155 21.1697 11.2503L19.8052 11.3743Z" fill="url(#paint4_linear_25555_221980)"/>
<path d="M19.8052 11.3743L27.0525 18.6216L23.2882 18.6216C23.164 18.6216 23.0416 18.5927 22.9305 18.5372L20.679 17.4115C20.5402 17.342 20.4305 17.2257 20.3693 17.083C19.7828 15.7146 19.5463 14.2216 19.6811 12.7389L19.8052 11.3743Z" fill="url(#paint5_linear_25555_221980)"/>
<circle cx="15.022" cy="8.73887" r="6.83288" fill="url(#paint6_linear_25555_221980)" stroke="url(#paint7_linear_25555_221980)" stroke-width="3.72703"/>
<circle cx="15.022" cy="8.7389" r="2.48468" fill="#E0EBFF"/>
<path d="M36.1654 17.7122L33.0297 17.7291V6.28786H37.4197C40.8097 6.28786 42.7929 7.89811 42.7929 10.5593C42.7929 13.3052 40.9114 14.9324 37.5892 14.9324H36.1654V17.7122ZM37.5045 9.16936H36.1654V12.0509H37.5045C38.9113 12.0509 39.5724 11.5254 39.5724 10.5593C39.5724 9.66091 38.8605 9.16936 37.5045 9.16936Z" fill="white"/>
<path d="M47.7027 17.7291H44.5669V6.28786H47.7027V10.5932H52.1944V6.28786H55.3302V17.7291H52.1944V13.4747H47.7027V17.7291Z" fill="white"/>
<path d="M63.2275 17.9834C59.7697 17.9834 57.1933 15.4239 57.1933 12.017C57.1933 8.61001 59.7697 6.05056 63.2275 6.05056C66.6853 6.05056 69.2617 8.61001 69.2617 12.017C69.2617 15.4239 66.6853 17.9834 63.2275 17.9834ZM63.2275 15.0171C64.8208 15.0171 66.0412 13.712 66.0412 12.017C66.0412 10.322 64.8208 9.01681 63.2275 9.01681C61.6342 9.01681 60.4138 10.322 60.4138 12.017C60.4138 13.712 61.6342 15.0171 63.2275 15.0171Z" fill="white"/>
<path d="M79.643 6.28786V9.16936H76.4055V17.7291H73.2698V9.16936H70.0323V6.28786H79.643Z" fill="white"/>
<path d="M86.4345 17.9834C82.9767 17.9834 80.4003 15.4239 80.4003 12.017C80.4003 8.61001 82.9767 6.05056 86.4345 6.05056C89.8923 6.05056 92.4687 8.61001 92.4687 12.017C92.4687 15.4239 89.8923 17.9834 86.4345 17.9834ZM86.4345 15.0171C88.0278 15.0171 89.2482 13.712 89.2482 12.017C89.2482 10.322 88.0278 9.01681 86.4345 9.01681C84.8412 9.01681 83.6208 10.322 83.6208 12.017C83.6208 13.712 84.8412 15.0171 86.4345 15.0171Z" fill="white"/>
<path d="M97.2225 17.7291H94.2562V7.96591C94.2562 6.74551 95.2054 6.01666 96.2055 6.01666C97.0021 6.01666 97.6971 6.28786 98.1039 6.93196L102.138 13.3221V6.28786H105.104V16.0511C105.104 17.2715 104.155 17.9834 103.155 17.9834C102.375 17.9834 101.663 17.7122 101.257 17.0681L97.2225 10.6779V17.7291Z" fill="white"/>
<path fill-rule="evenodd" clip-rule="evenodd" d="M114.134 16.7433C114.274 16.4767 114.344 16.17 114.344 15.8233C114.344 15.5033 114.301 15.2167 114.214 14.9633C114.128 14.71 113.988 14.4933 113.794 14.3133C113.641 14.1733 113.458 14.06 113.244 13.9733C113.031 13.88 112.761 13.81 112.434 13.7633L111.594 13.6433C111.448 13.6233 111.318 13.59 111.204 13.5433C111.098 13.49 111.008 13.43 110.934 13.3633C110.861 13.29 110.808 13.21 110.774 13.1233C110.741 13.0367 110.724 12.9467 110.724 12.8533C110.724 12.6067 110.814 12.3967 110.994 12.2233C111.174 12.0433 111.451 11.9533 111.824 11.9533C112.058 11.9533 112.301 11.9833 112.554 12.0433C112.814 12.0967 113.058 12.23 113.284 12.4433L114.164 11.5733C113.858 11.2733 113.521 11.06 113.154 10.9333C112.788 10.8067 112.358 10.7433 111.864 10.7433C111.478 10.7433 111.131 10.7967 110.824 10.9033C110.518 11.01 110.258 11.16 110.044 11.3533C109.831 11.54 109.668 11.7667 109.554 12.0333C109.441 12.2933 109.384 12.5833 109.384 12.9033C109.384 13.4967 109.554 13.9633 109.894 14.3033C110.208 14.61 110.668 14.8067 111.274 14.8933L112.134 15.0133C112.301 15.04 112.428 15.0733 112.514 15.1133C112.608 15.1467 112.691 15.1967 112.764 15.2633C112.911 15.4033 112.984 15.6033 112.984 15.8633C112.984 16.15 112.878 16.37 112.664 16.5233C112.451 16.67 112.138 16.7433 111.724 16.7433C111.391 16.7433 111.078 16.7 110.784 16.6133C110.491 16.5267 110.231 16.37 110.004 16.1433L109.104 17.0433C109.451 17.3967 109.834 17.6433 110.254 17.7833C110.681 17.9167 111.164 17.9833 111.704 17.9833C112.078 17.9833 112.424 17.9367 112.744 17.8433C113.064 17.7433 113.341 17.6033 113.574 17.4233C113.814 17.2367 114.001 17.01 114.134 16.7433ZM120.672 14.3633C120.672 14.67 120.669 14.9567 120.662 15.2233C120.656 15.49 120.629 15.74 120.582 15.9733C120.542 16.2067 120.472 16.4267 120.372 16.6333C120.279 16.8333 120.142 17.0233 119.962 17.2033C119.709 17.4567 119.426 17.65 119.112 17.7833C118.806 17.9167 118.449 17.9833 118.042 17.9833C117.636 17.9833 117.276 17.9167 116.962 17.7833C116.649 17.65 116.366 17.4567 116.112 17.2033C115.932 17.0233 115.792 16.8333 115.692 16.6333C115.599 16.4267 115.532 16.2067 115.492 15.9733C115.452 15.74 115.429 15.49 115.422 15.2233C115.416 14.9567 115.412 14.67 115.412 14.3633C115.412 14.0567 115.416 13.77 115.422 13.5033C115.429 13.2367 115.452 12.9867 115.492 12.7533C115.532 12.52 115.599 12.3033 115.692 12.1033C115.792 11.8967 115.932 11.7033 116.112 11.5233C116.366 11.27 116.649 11.0767 116.962 10.9433C117.276 10.81 117.636 10.7433 118.042 10.7433C118.449 10.7433 118.806 10.81 119.112 10.9433C119.426 11.0767 119.709 11.27 119.962 11.5233C120.142 11.7033 120.279 11.8967 120.372 12.1033C120.472 12.3033 120.542 12.52 120.582 12.7533C120.629 12.9867 120.656 13.2367 120.662 13.5033C120.669 13.77 120.672 14.0567 120.672 14.3633ZM119.282 14.3633C119.282 14.0233 119.276 13.7433 119.262 13.5233C119.256 13.2967 119.239 13.11 119.212 12.9633C119.186 12.8167 119.149 12.7 119.102 12.6133C119.056 12.52 118.999 12.4367 118.932 12.3633C118.832 12.25 118.706 12.16 118.552 12.0933C118.406 12.02 118.236 11.9833 118.042 11.9833C117.849 11.9833 117.676 12.02 117.522 12.0933C117.369 12.16 117.242 12.25 117.142 12.3633C117.076 12.4367 117.019 12.52 116.972 12.6133C116.932 12.7 116.899 12.8167 116.872 12.9633C116.846 13.11 116.826 13.2967 116.812 13.5233C116.806 13.7433 116.802 14.0233 116.802 14.3633C116.802 14.7033 116.806 14.9867 116.812 15.2133C116.826 15.4333 116.846 15.6167 116.872 15.7633C116.899 15.91 116.932 16.03 116.972 16.1233C117.019 16.21 117.076 16.29 117.142 16.3633C117.242 16.4767 117.369 16.57 117.522 16.6433C117.676 16.71 117.849 16.7433 118.042 16.7433C118.236 16.7433 118.406 16.71 118.552 16.6433C118.706 16.57 118.832 16.4767 118.932 16.3633C118.999 16.29 119.056 16.21 119.102 16.1233C119.149 16.03 119.186 15.91 119.212 15.7633C119.239 15.6167 119.256 15.4333 119.262 15.2133C119.276 14.9867 119.282 14.7033 119.282 14.3633ZM126.708 17.9233H122.088V10.8033H123.478V16.6833H126.708V17.9233Z" fill="url(#paint8_linear_25555_221980)"/>
<defs>
<linearGradient id="paint0_linear_25555_221980" x1="15.022" y1="13.7083" x2="15.022" y2="23.647" gradientUnits="userSpaceOnUse">
<stop stop-color="#8100E7"/>
<stop offset="0.536458" stop-color="#3EFFF3"/>
<stop offset="1" stop-color="#00BBF5"/>
</linearGradient>
<linearGradient id="paint1_linear_25555_221980" x1="15.022" y1="13.7083" x2="15.022" y2="23.647" gradientUnits="userSpaceOnUse">
<stop stop-color="#1D0AFF"/>
<stop offset="0.510417" stop-color="#00C2FF"/>
</linearGradient>
<linearGradient id="paint2_linear_25555_221980" x1="10.2542" y1="11.3743" x2="3.2264" y2="18.4021" gradientUnits="userSpaceOnUse">
<stop stop-color="#8100E7"/>
<stop offset="0.536458" stop-color="#3EFFF3"/>
<stop offset="1" stop-color="#00BBF5"/>
</linearGradient>
<linearGradient id="paint3_linear_25555_221980" x1="10.2542" y1="11.3743" x2="3.2264" y2="18.4021" gradientUnits="userSpaceOnUse">
<stop stop-color="#1D0AFF"/>
<stop offset="0.510417" stop-color="#00C2FF"/>
</linearGradient>
<linearGradient id="paint4_linear_25555_221980" x1="19.8052" y1="11.3743" x2="26.8329" y2="18.4021" gradientUnits="userSpaceOnUse">
<stop stop-color="#1D0AFF"/>
<stop offset="0.510417" stop-color="#00C2FF"/>
</linearGradient>
<linearGradient id="paint5_linear_25555_221980" x1="19.8052" y1="11.3743" x2="26.8329" y2="18.4021" gradientUnits="userSpaceOnUse">
<stop stop-color="#8100E7"/>
<stop offset="0.536458" stop-color="#3EFFF3"/>
<stop offset="1" stop-color="#00BBF5"/>
</linearGradient>
<linearGradient id="paint6_linear_25555_221980" x1="15.022" y1="0.0424805" x2="15.022" y2="17.4353" gradientUnits="userSpaceOnUse">
<stop stop-color="#232323"/>
<stop offset="0.489583" stop-color="#202947"/>
<stop offset="1" stop-color="#232323"/>
</linearGradient>
<linearGradient id="paint7_linear_25555_221980" x1="15.022" y1="0.0424805" x2="15.022" y2="17.4353" gradientUnits="userSpaceOnUse">
<stop stop-color="#57FFD7"/>
<stop offset="0.510417" stop-color="#E95FFF"/>
<stop offset="1" stop-color="#01FFFF"/>
</linearGradient>
<linearGradient id="paint8_linear_25555_221980" x1="109.5" y1="17.5" x2="114.188" y2="6.68151" gradientUnits="userSpaceOnUse">
<stop stop-color="#C494FF"/>
<stop offset="1" stop-color="#14F195"/>
</linearGradient>
</defs>
</svg>
