<svg width="23" height="22" viewBox="0 0 23 22" fill="none" xmlns="http://www.w3.org/2000/svg">
<g clip-path="url(#clip0_24166_40721)">
<path d="M4.49932 18.9087C6.83502 18.9087 8.59032 16.8774 9.63786 15.2723C9.51045 15.6274 9.43966 15.9825 9.43966 16.3234C9.43966 17.261 9.9776 17.9286 11.0393 17.9286C12.4973 17.9286 14.0544 16.6501 14.8613 15.2723C14.8047 15.4712 14.7764 15.6558 14.7764 15.8263C14.7764 16.4797 15.1444 16.8916 15.8947 16.8916C18.2587 16.8916 20.6368 12.7012 20.6368 9.0364C20.6368 6.18123 19.193 3.66699 15.5691 3.66699C9.19903 3.66699 2.3335 11.4512 2.3335 16.4797C2.3335 18.4541 3.39518 18.9087 4.49932 18.9087ZM13.375 8.7239C13.375 8.01366 13.7713 7.5165 14.3517 7.5165C14.9179 7.5165 15.3143 8.01366 15.3143 8.7239C15.3143 9.43414 14.9179 9.94549 14.3517 9.94549C13.7713 9.94549 13.375 9.43414 13.375 8.7239ZM16.4043 8.7239C16.4043 8.01366 16.8007 7.5165 17.381 7.5165C17.9472 7.5165 18.3436 8.01366 18.3436 8.7239C18.3436 9.43414 17.9472 9.94549 17.381 9.94549C16.8007 9.94549 16.4043 9.43414 16.4043 8.7239Z" fill="#AB9FF2"/>
</g>
<defs>
<clipPath id="clip0_24166_40721">
<rect width="18.3333" height="15.2417" fill="white" transform="translate(2.3335 3.66699)"/>
</clipPath>
</defs>
</svg>
